<svg width="184" height="17" viewBox="0 0 184 17" fill="none" xmlns="http://www.w3.org/2000/svg">
<path d="M19.0445 1.92962C17.061 1.936 15.094 2.28941 13.2323 2.97388C13.1765 2.9995 13.1301 3.04181 13.0994 3.09495C13.0686 3.1481 13.0552 3.20947 13.0608 3.2706L13.3743 5.35199C13.3822 5.3998 13.4083 5.44269 13.4472 5.47164C13.4686 5.48079 13.4916 5.4855 13.5148 5.48548C13.5381 5.48547 13.5611 5.48073 13.5825 5.47156C14.4385 5.22451 15.3069 5.02249 16.1841 4.86635C18.2655 4.51644 19.4208 4.60422 20.004 5.15549C20.1698 5.33233 20.2894 5.54739 20.3522 5.78157C20.415 6.01574 20.419 6.2618 20.3638 6.49789L20.312 6.89342C20.312 6.89342 17.7883 7.23318 16.1493 7.54119C14.9183 7.70212 13.7316 8.10614 12.6581 8.72977C10.9519 9.83923 10.5317 12.0147 10.8605 13.5653C11.1475 14.9234 12.3454 16.5463 16.4304 16.5438L16.7271 16.5436C22.9718 16.5399 23.7882 15.4726 24.0626 13.214L24.4355 10.2163L24.9171 6.25059C25.02 5.75325 25.0107 5.23921 24.8898 4.74594C24.7688 4.25267 24.5394 3.79259 24.2181 3.39925C23.3328 2.41103 21.6413 1.92807 19.0445 1.92962ZM19.9702 9.59446C19.9702 9.59446 19.846 10.7706 19.846 10.7862L19.4783 13.7579L19.4262 13.7579C18.845 13.9169 18.2438 13.9908 17.6414 13.9776C16.9687 14.0396 16.2978 13.8406 15.7677 13.4219C15.5994 13.241 15.4696 13.0279 15.3862 12.7953C15.3029 12.5628 15.2677 12.3157 15.2829 12.0691C15.2822 10.8826 15.9895 10.138 17.436 9.86658C18.8825 9.59511 20.0377 9.46953 20.0377 9.46953L19.9702 9.59446Z" fill="#E4E4E4"/>
<path d="M75.6324 1.90093L75.1745 1.9012C71.8648 1.90318 69.6172 2.85684 68.4995 4.73092C67.6001 6.22498 67.1712 11.2887 67.166 11.3407C67.0687 12.1439 67.1545 12.9587 67.4173 13.724C68.3502 16.2057 71.5821 16.5368 73.4399 16.5149C76.7756 16.5129 79.0283 15.5592 80.1253 13.732C80.4632 13.1698 80.9566 11.6031 81.412 7.33559L81.4119 7.18468C81.5203 6.41855 81.4648 5.63815 81.2492 4.89504C80.5297 2.52248 77.7973 1.96208 75.6324 1.90093ZM76.4029 11.1427L76.4029 11.2207C76.3606 11.9128 76.0944 12.5723 75.6443 13.0998C75.2053 13.5023 74.6322 13.7271 74.0367 13.7304C73.5235 13.7926 73.0035 13.7005 72.543 13.4659C72.2807 13.3035 72.0608 13.0811 71.9014 12.817C71.742 12.5529 71.6477 12.2546 71.6262 11.9469C71.5947 11.5462 71.9523 9.06894 72.1441 7.73662L72.2322 7.1225C72.3037 6.37951 72.6571 5.69214 73.2198 5.20166C73.6638 4.84907 74.2136 4.65626 74.7806 4.65432C75.2604 4.62301 75.7387 4.73502 76.1546 4.97614C76.3947 5.14909 76.5893 5.37762 76.7217 5.64217C76.8542 5.90672 76.9206 6.19942 76.9153 6.49523C76.9311 6.79705 76.7551 8.39997 76.4029 11.1427Z" fill="#E4E4E4"/>
<path d="M66.7077 2.01052L64.7251 2.0117C64.1932 1.99717 63.6665 2.11876 63.1949 2.36495C62.7233 2.61113 62.3224 2.97374 62.0303 3.41837L57.007 9.66609L57.1421 9.29653L58.0225 2.20304C58.0267 2.1796 58.0251 2.15549 58.0178 2.13281C58.0106 2.11014 57.9978 2.08959 57.9808 2.07297C57.9657 2.05454 57.9466 2.03981 57.925 2.0299C57.9033 2.01999 57.8797 2.01517 57.8559 2.0158L53.7239 2.01826C53.667 2.02107 53.6128 2.04327 53.5702 2.08115C53.5276 2.11904 53.4993 2.17035 53.4899 2.22656L51.7704 16.0388C51.7676 16.0602 51.7694 16.082 51.7757 16.1026C51.782 16.1233 51.7926 16.1423 51.8069 16.1585C51.823 16.1731 51.842 16.1844 51.8625 16.1915C51.8831 16.1987 51.9049 16.2016 51.9266 16.2001L54.0863 16.1988C54.6166 16.2045 55.1397 16.0762 55.6072 15.8257C56.0746 15.5753 56.4713 15.2108 56.7602 14.7661L61.6689 8.38314L61.5078 8.77353L60.6171 16.0075C60.6116 16.054 60.6247 16.1008 60.6536 16.1376C60.671 16.156 60.6919 16.1706 60.7152 16.1804C60.7385 16.1903 60.7636 16.1952 60.7889 16.1948L64.9156 16.1923C64.9726 16.1895 65.0268 16.1673 65.0694 16.1294C65.112 16.0915 65.1403 16.0402 65.1497 15.984L66.8588 2.16134C66.8634 2.14034 66.863 2.11853 66.8576 2.09772C66.8521 2.07691 66.8418 2.05769 66.8275 2.04167C66.8108 2.02832 66.7916 2.01863 66.7709 2.01326C66.7503 2.0079 66.7288 2.00696 66.7077 2.01052Z" fill="#E4E4E4"/>
<path d="M96.4226 1.88345L92.2129 2.40636C92.1524 2.41614 92.0964 2.44442 92.0526 2.48731C92.0089 2.53021 91.9795 2.5856 91.9685 2.64589L91.3729 7.4859L91.3418 7.68367L87.3191 7.68607L88.0131 2.04979C88.0163 2.02839 88.0147 2.00654 88.0084 1.98584C88.002 1.96514 87.9912 1.94611 87.9766 1.93012C87.9608 1.91523 87.9418 1.90419 87.921 1.89789C87.9003 1.89158 87.8783 1.89017 87.8569 1.89377L83.6472 2.41667C83.5867 2.42646 83.5308 2.45474 83.487 2.49763C83.4432 2.54052 83.4138 2.59592 83.4028 2.6562L81.7767 15.9949C81.7746 16.0183 81.7773 16.0418 81.7846 16.0642C81.792 16.0865 81.8038 16.107 81.8195 16.1246C81.8351 16.1421 81.8541 16.1563 81.8754 16.1662C81.8967 16.1761 81.9199 16.1815 81.9434 16.1821L86.0753 16.1796C86.1331 16.178 86.1886 16.1563 86.2322 16.1183C86.2758 16.0803 86.3049 16.0284 86.3145 15.9713L86.9774 10.6265L86.9774 10.5849L91.0053 10.5825L90.3372 15.9897C90.335 16.0131 90.3377 16.0367 90.3451 16.059C90.3524 16.0814 90.3643 16.1019 90.3799 16.1195C90.3955 16.137 90.4146 16.1512 90.4359 16.1611C90.4572 16.171 90.4803 16.1764 90.5038 16.177L91.5446 16.1764C93.4492 16.1752 94.849 15.9454 95.1443 13.744L96.5736 2.04469C96.5787 2.02371 96.5785 2.00178 96.5731 1.98089C96.5676 1.96 96.557 1.9408 96.5423 1.92501C96.5272 1.90884 96.5085 1.8966 96.4876 1.88935C96.4667 1.88211 96.4444 1.88008 96.4226 1.88345V1.88345Z" fill="#E4E4E4"/>
<path d="M51.9261 5.05843L52.2782 2.19085C52.2804 2.16702 52.2776 2.143 52.2699 2.12033C52.2622 2.09766 52.2499 2.07685 52.2337 2.05922C52.2176 2.04159 52.1979 2.02754 52.1759 2.01796C52.154 2.00838 52.1303 2.0035 52.1064 2.00361L36.4478 2.01295C36.3056 2.01934 36.1662 2.05396 36.0376 2.11479C35.9089 2.17562 35.7937 2.26145 35.6986 2.36727L31.3253 7.72993L30.7008 7.7303L31.4 2.08361C31.4036 2.0622 31.4021 2.04026 31.3958 2.01949C31.3895 1.99873 31.3784 1.97972 31.3635 1.96395C31.3471 1.94996 31.328 1.93951 31.3074 1.93325C31.2868 1.92699 31.2652 1.92507 31.2438 1.92759L27.0341 2.45049C26.9729 2.4606 26.9164 2.48964 26.8725 2.53354C26.8287 2.57744 26.7997 2.63399 26.7897 2.69523L25.1376 16.0339C25.1327 16.0577 25.1335 16.0824 25.1398 16.1059C25.1461 16.1293 25.1579 16.151 25.1741 16.1692C25.2091 16.2027 25.2558 16.2213 25.3042 16.2211L29.4674 16.2187C29.5243 16.2158 29.5785 16.1937 29.6211 16.1558C29.6637 16.1179 29.692 16.0666 29.7014 16.0104L30.3695 10.6291L31.0148 10.6287L34.0207 16.013C34.0566 16.0715 34.1061 16.1205 34.165 16.1558C34.2239 16.1911 34.2905 16.2117 34.3591 16.2157L38.8396 16.2131C38.9125 16.213 38.9853 16.1765 38.9228 16.0517L34.818 9.21617L38.219 5.27476L43.1368 5.27183L41.8058 16.0239C41.8009 16.0478 41.8017 16.0724 41.808 16.0959C41.8143 16.1194 41.8261 16.1411 41.8423 16.1592C41.8773 16.1927 41.9239 16.2114 41.9724 16.2112L46.1043 16.2087C46.1619 16.2079 46.2172 16.1864 46.2602 16.1482C46.3032 16.1099 46.3309 16.0575 46.3384 16.0004L47.6486 5.26914L51.6868 5.26673C51.7447 5.26509 51.8001 5.24342 51.8438 5.20543C51.8874 5.16744 51.9165 5.11548 51.9261 5.05843V5.05843Z" fill="#E4E4E4"/>
<path d="M10.3495 2.03348L6.39975 2.03584C6.12764 2.05098 5.87126 2.16821 5.6818 2.36411L0.752042 8.34638C0.662177 8.44962 0.606876 8.5784 0.593892 8.71466C0.580908 8.85092 0.610892 8.98783 0.67964 9.10619L4.51897 15.869C4.58446 15.9754 4.67535 16.0639 4.78347 16.1265C4.8916 16.1891 5.01357 16.2239 5.13846 16.2277L8.55744 16.2257C8.80203 16.2255 8.92162 16.0693 8.80182 15.8769L4.95207 9.11405L10.5162 2.34562C10.6618 2.1686 10.5889 2.03334 10.3495 2.03348Z" fill="#E4E4E4"/>
<path d="M107.193 9.0897L103.354 2.32688C103.286 2.22201 103.195 2.13473 103.087 2.07233C102.98 2.00993 102.858 1.97422 102.734 1.96818L99.3099 1.97022C99.0705 1.97036 98.9509 2.12655 99.0655 2.32423L102.92 9.08704L97.3563 15.8815C97.2055 16.0533 97.2784 16.1886 97.523 16.1884L101.473 16.1861C101.744 16.1738 102 16.056 102.186 15.8578L107.12 9.84431C107.209 9.74151 107.264 9.6137 107.277 9.47853C107.29 9.34336 107.26 9.2075 107.193 9.0897Z" fill="#E4E4E4"/>
<path d="M154.707 2.98826L149.794 2.99119L148.199 16.002C148.19 16.0815 148.151 16.1547 148.091 16.2069C148.03 16.259 147.952 16.2863 147.871 16.2832L146.472 16.284C146.431 16.2881 146.39 16.2831 146.351 16.2694C146.313 16.2557 146.278 16.2336 146.249 16.2047C146.22 16.1759 146.198 16.1409 146.184 16.1025C146.171 16.064 146.166 16.023 146.17 15.9824L147.765 2.97158L142.894 2.97449C142.852 2.97495 142.811 2.96645 142.774 2.94956C142.736 2.93267 142.702 2.90779 142.675 2.87665C142.648 2.84551 142.628 2.80883 142.616 2.76916C142.604 2.72948 142.601 2.68774 142.607 2.64681L142.726 1.57473C142.74 1.48743 142.785 1.40813 142.853 1.3516C142.921 1.29507 143.007 1.26517 143.096 1.26748L154.867 1.26045C154.907 1.25756 154.947 1.26374 154.984 1.27853C155.021 1.29332 155.055 1.31634 155.082 1.34586C155.109 1.37538 155.129 1.41063 155.14 1.44898C155.152 1.48733 155.155 1.52779 155.148 1.56732L155.008 2.68104C155.01 2.7213 155.003 2.76144 154.988 2.799C154.974 2.83655 154.952 2.87075 154.924 2.8995C154.895 2.92824 154.862 2.95094 154.824 2.9662C154.787 2.98146 154.747 2.98896 154.707 2.98826Z" fill="#E4E4E4"/>
<path d="M154.702 12.626C154.703 14.4734 155.781 15.1025 157.915 15.1012C158.909 15.0764 159.891 14.8713 160.813 14.4958C161.016 14.4176 161.12 14.4956 161.141 14.6778L161.261 15.5936C161.261 15.7549 161.22 15.859 161.017 15.9372C159.893 16.3459 158.705 16.5527 157.51 16.5481C154.096 16.5502 152.825 15.2499 152.824 12.4919C152.829 11.9838 152.864 11.4765 152.927 10.9722C153.351 7.45934 154.407 5.36673 158.403 5.36434C161.083 5.36274 162.567 6.40265 162.568 8.62993C162.57 11.7939 160.624 12.1229 157.783 12.1246L154.697 12.1265C154.689 12.293 154.691 12.4598 154.702 12.626ZM160.69 8.84962C160.731 7.44973 160.017 6.79967 158.253 6.80072C155.693 6.80225 155.069 8.26492 154.868 10.7994L157.948 10.7975C159.832 10.7964 160.649 10.5357 160.69 8.84962Z" fill="#E4E4E4"/>
<path d="M172.253 7.28167C171.397 7.01331 170.51 6.85642 169.614 6.81489C167.865 6.81593 166.955 7.36289 166.425 8.89836C166.081 10.05 165.906 11.2457 165.907 12.4478C165.832 13.1686 166.044 13.8898 166.496 14.4561C166.923 14.9034 167.615 15.0643 168.609 15.0637C169.514 15.0307 170.412 14.8904 171.284 14.6458C171.332 14.6382 171.381 14.6382 171.43 14.6457C171.458 14.6443 171.486 14.6486 171.513 14.6584C171.54 14.6681 171.565 14.6831 171.585 14.7025C171.606 14.7219 171.623 14.7453 171.635 14.7712C171.646 14.7972 171.653 14.8253 171.653 14.8537L171.711 15.6447C171.72 15.6848 171.721 15.7263 171.714 15.7666C171.706 15.807 171.69 15.8455 171.667 15.8796C171.645 15.9137 171.615 15.9428 171.581 15.9651C171.546 15.9873 171.507 16.0023 171.467 16.0091C170.413 16.329 169.321 16.5047 168.22 16.5315C166.659 16.5324 165.618 16.252 164.915 15.6227C164.212 14.9935 163.941 13.9789 163.94 12.5998C163.937 11.187 164.153 9.78234 164.583 8.43631C165.315 6.3543 166.735 5.36991 169.597 5.3682C170.647 5.38263 171.688 5.56652 172.678 5.91278C172.731 5.92896 172.778 5.9612 172.811 6.00502C172.845 6.04885 172.864 6.10206 172.866 6.15725C172.863 6.22665 172.849 6.29513 172.824 6.36023L172.56 7.10975C172.54 7.17234 172.498 7.22511 172.44 7.25712C172.383 7.28912 172.316 7.29791 172.253 7.28167Z" fill="#E4E4E4"/>
<path d="M183.473 8.83597L182.582 15.9607C182.581 16.0017 182.571 16.0421 182.554 16.0794C182.538 16.1168 182.513 16.1505 182.483 16.1785C182.453 16.2066 182.418 16.2285 182.38 16.2429C182.341 16.2573 182.301 16.2641 182.26 16.2627L180.979 16.2635C180.939 16.2696 180.898 16.2658 180.86 16.2524C180.821 16.2391 180.787 16.2166 180.759 16.1868C180.732 16.1571 180.712 16.1211 180.701 16.0819C180.69 16.0427 180.689 16.0015 180.698 15.9618L181.563 9.01925C181.609 8.68967 181.636 8.35784 181.646 8.02525C181.645 7.05212 181.099 6.78704 180.021 6.78768C178.813 6.81997 177.613 6.99537 176.447 7.31021L175.411 15.9754C175.408 16.0183 175.397 16.0602 175.378 16.0987C175.359 16.1372 175.333 16.1715 175.3 16.1997C175.268 16.2278 175.23 16.2492 175.189 16.2625C175.148 16.2759 175.105 16.2809 175.063 16.2774L173.808 16.2782C173.621 16.2783 173.501 16.1795 173.522 15.9765L175.278 1.6074C175.277 1.42005 175.402 1.34192 175.584 1.30018L176.901 1.01318C176.944 1.00447 176.988 1.00618 177.031 1.01817C177.073 1.03016 177.112 1.05207 177.144 1.08209C177.176 1.11211 177.2 1.14937 177.215 1.19075C177.23 1.23214 177.235 1.27646 177.229 1.32001L176.783 4.74967L176.441 5.92597C177.733 5.58594 179.06 5.39483 180.395 5.35638C181.571 5.35568 182.425 5.5373 182.935 5.98454C183.165 6.20122 183.343 6.46751 183.455 6.76319C183.567 7.05888 183.61 7.37619 183.581 7.69104C183.567 8.07444 183.531 8.4567 183.473 8.83597Z" fill="#E4E4E4"/>
<path d="M124.417 16.2503L123.017 16.2512C122.978 16.253 122.939 16.2462 122.903 16.2314C122.866 16.2166 122.834 16.194 122.807 16.1654C122.78 16.1367 122.76 16.1025 122.748 16.0652C122.736 16.028 122.732 15.9885 122.736 15.9495L123.544 9.37125L115.036 9.37632L114.228 15.9546C114.218 16.0383 114.177 16.1153 114.114 16.171C114.05 16.2267 113.969 16.2572 113.885 16.2566L112.505 16.2574C112.465 16.2614 112.423 16.2563 112.385 16.2427C112.346 16.229 112.311 16.207 112.282 16.1782C112.252 16.1495 112.23 16.1147 112.215 16.0762C112.201 16.0378 112.195 15.9967 112.198 15.9558L113.98 1.51381C113.98 1.33167 114.099 1.26915 114.261 1.24824L115.764 0.992351C115.801 0.985904 115.838 0.988303 115.873 0.999347C115.908 1.01039 115.94 1.02975 115.966 1.05579C115.992 1.08182 116.012 1.11376 116.023 1.14889C116.034 1.18402 116.036 1.22131 116.03 1.25759L115.238 7.63289L123.746 7.62781L124.492 1.50754C124.502 1.4344 124.538 1.3673 124.593 1.31853C124.648 1.26975 124.72 1.24257 124.793 1.24196L126.318 0.986054C126.353 0.979516 126.39 0.982061 126.424 0.993451C126.458 1.00484 126.489 1.0247 126.514 1.05119C126.538 1.07768 126.555 1.10992 126.564 1.14491C126.573 1.17991 126.572 1.21651 126.563 1.25131L124.766 15.9483C124.753 16.032 124.711 16.1085 124.647 16.1639C124.584 16.2193 124.502 16.25 124.417 16.2503Z" fill="#E4E4E4"/>
<path d="M140.627 7.22233C140.108 8.23741 139.13 8.84685 137.464 9.0508L137.402 9.57123C138.443 9.67469 139.411 9.81462 139.963 10.7094C140.27 11.3028 140.41 11.9679 140.37 12.6346C140.371 12.9989 140.371 13.1237 140.329 13.7534L140.169 15.9444C140.171 15.9868 140.164 16.0291 140.148 16.0683C140.132 16.1076 140.107 16.1428 140.076 16.1716C140.045 16.2003 140.007 16.2219 139.967 16.2349C139.927 16.2478 139.884 16.2517 139.842 16.2464L138.364 16.2473C138.161 16.2474 138.057 16.1486 138.077 15.9248L138.237 13.6298C138.237 13.2863 138.279 12.9012 138.278 12.5578C138.298 12.2594 138.253 11.9604 138.148 11.6805C138.043 11.4006 137.879 11.1463 137.668 10.9345C137.148 10.4665 136.331 10.2224 135.134 10.2023L130.971 10.1059L130.261 15.9503C130.246 16.0358 130.201 16.1131 130.135 16.1685C130.068 16.2238 129.984 16.2536 129.897 16.2524L128.539 16.2532C128.499 16.2555 128.458 16.2492 128.421 16.2349C128.383 16.2205 128.349 16.1984 128.32 16.1699C128.292 16.1414 128.27 16.1073 128.255 16.0696C128.241 16.032 128.235 15.9918 128.237 15.9515L129.992 1.58241C130.007 1.49094 130.054 1.4077 130.124 1.3476C130.195 1.28749 130.285 1.25443 130.377 1.25433L136.929 1.25042C138.651 1.2494 139.932 1.61291 140.619 2.52839C141.035 3.13986 141.237 3.87159 141.193 4.60962C141.216 5.51321 141.022 6.40913 140.627 7.22233ZM138.721 3.62755C138.356 3.1438 137.726 2.89959 136.748 2.90018L131.841 2.90311L131.131 8.62786L135.211 8.48492C136.631 8.44244 137.849 8.23876 138.52 7.24441C138.922 6.57109 139.118 5.79507 139.086 5.01158C139.124 4.51893 138.996 4.02764 138.721 3.61714L138.721 3.62755Z" fill="#E4E4E4"/>
</svg>
