<svg width="263" height="20" viewBox="0 0 263 20" fill="none" xmlns="http://www.w3.org/2000/svg">
<path d="M27.3725 1.13281C24.5354 1.13948 21.7215 1.59153 19.0581 2.46851C18.9783 2.50135 18.9118 2.55561 18.8678 2.62379C18.8238 2.69197 18.8045 2.77072 18.8125 2.84918L19.2591 5.52057C19.2704 5.58194 19.3077 5.637 19.3633 5.67418C19.3939 5.68593 19.4268 5.692 19.4601 5.692C19.4933 5.692 19.5262 5.68593 19.5568 5.67418C20.7815 5.35778 22.0238 5.09919 23.2786 4.89947C26.256 4.45201 27.9084 4.56555 28.7421 5.27347C28.9792 5.50055 29.1501 5.77663 29.2397 6.07721C29.3293 6.37779 29.3348 6.69357 29.2557 6.99651L29.1813 7.50408C29.1813 7.50408 25.5712 7.93818 23.2265 8.33221C21.4656 8.5378 19.7678 9.05539 18.2319 9.8549C15.7904 11.2774 15.1875 14.069 15.6564 16.0592C16.0658 17.8023 17.7778 19.886 23.621 19.886H24.0453C32.9775 19.886 34.1461 18.5169 34.5406 15.6184L35.0765 11.7716L35.7688 6.68263C35.9164 6.04444 35.9035 5.38474 35.7309 4.75161C35.5584 4.11848 35.2306 3.52787 34.7713 3.02282C33.5059 1.75391 31.0868 1.13281 27.3725 1.13281ZM28.69 10.9702C28.69 10.9702 28.5114 12.4795 28.5114 12.4996L27.9829 16.313H27.9084C27.0769 16.5165 26.217 16.611 25.3553 16.5935C24.393 16.6725 23.4336 16.4167 22.6757 15.8789C22.4351 15.6467 22.2496 15.373 22.1306 15.0745C22.0116 14.776 21.9615 14.4589 21.9834 14.1425C21.9834 12.6198 22.9957 11.6648 25.065 11.3175C27.1343 10.9702 28.7868 10.8099 28.7868 10.8099L28.69 10.9702Z" fill="white"/>
<path d="M108.314 1.13965H107.659C102.925 1.13965 99.7092 2.36181 98.1089 4.76606C96.8211 6.68278 96.2033 13.1809 96.1959 13.2477C96.0559 14.2784 96.1781 15.3242 96.5532 16.3065C97.8856 19.4921 102.508 19.9195 105.165 19.8928C109.937 19.8928 113.16 18.6706 114.73 16.3265C115.214 15.6052 115.921 13.595 116.576 8.11866V7.92498C116.732 6.94185 116.653 5.94029 116.345 4.98645C115.318 1.94107 111.41 1.21979 108.314 1.13965ZM109.408 13.0006V13.1008C109.347 13.9889 108.966 14.8352 108.321 15.5117C107.693 16.0279 106.873 16.316 106.021 16.3198C105.287 16.3992 104.544 16.2806 103.885 15.9792C103.51 15.7706 103.196 15.485 102.968 15.1459C102.74 14.8068 102.605 14.424 102.575 14.0291C102.53 13.5149 103.044 10.3359 103.319 8.62622L103.446 7.83816C103.549 6.8847 104.055 6.00283 104.86 5.3738C105.496 4.92164 106.282 4.67462 107.093 4.67256C107.779 4.63275 108.463 4.77687 109.058 5.08663C109.401 5.30877 109.68 5.6022 109.869 5.94181C110.058 6.28142 110.153 6.65711 110.145 7.03674C110.167 7.42409 109.914 9.48106 109.408 13.0006Z" fill="white"/>
<path d="M95.5476 1.2732H92.7116C91.9509 1.25415 91.1975 1.40979 90.5227 1.72537C89.8478 2.04096 89.2741 2.506 88.8559 3.07639L81.6655 11.0906L81.859 10.6164L83.1244 1.51363C83.1304 1.48355 83.1281 1.45261 83.1178 1.4235C83.1074 1.39439 83.0892 1.36801 83.0648 1.34667C83.0433 1.32301 83.016 1.30409 82.985 1.29136C82.954 1.27862 82.9202 1.27241 82.8862 1.2732H76.976C76.8946 1.27677 76.817 1.3052 76.7561 1.3538C76.6952 1.40239 76.6546 1.46821 76.6411 1.54034L74.1698 19.265C74.1658 19.2925 74.1683 19.3204 74.1773 19.3469C74.1863 19.3734 74.2015 19.3979 74.222 19.4186C74.245 19.4374 74.272 19.4519 74.3015 19.4611C74.3309 19.4702 74.3621 19.474 74.3932 19.4721H77.4822C78.2407 19.4798 78.9891 19.3155 79.658 18.9945C80.3268 18.6734 80.8945 18.2059 81.3082 17.6355L88.3348 9.44766L88.1041 9.94855L86.8238 19.2316C86.8159 19.2913 86.8346 19.3513 86.8759 19.3986C86.9007 19.4222 86.9307 19.441 86.9641 19.4536C86.9974 19.4663 87.0333 19.4725 87.0694 19.4721H92.9721C93.0536 19.4685 93.1312 19.4401 93.1921 19.3915C93.253 19.3429 93.2936 19.277 93.3071 19.2049L95.7634 1.46688C95.7701 1.43994 95.7696 1.41194 95.7618 1.38523C95.7541 1.35852 95.7393 1.33385 95.7188 1.31328C95.695 1.29612 95.6675 1.28369 95.638 1.27678C95.6085 1.26987 95.5777 1.26865 95.5476 1.2732Z" fill="white"/>
<path d="M138.05 1.13288L132.028 1.80073C131.941 1.81324 131.861 1.84949 131.799 1.9045C131.736 1.95951 131.694 2.03058 131.678 2.10794L130.822 8.31892L130.778 8.5727H125.024L126.021 1.33991C126.026 1.31244 126.023 1.28441 126.014 1.25784C126.005 1.23127 125.99 1.20683 125.969 1.18631C125.946 1.16718 125.919 1.153 125.89 1.14489C125.86 1.13678 125.828 1.13495 125.798 1.13956L119.776 1.8074C119.689 1.81991 119.609 1.85617 119.547 1.91118C119.484 1.96619 119.442 2.03726 119.426 2.11461L117.089 19.2316C117.086 19.2616 117.09 19.2918 117.1 19.3205C117.111 19.3491 117.128 19.3755 117.15 19.3981C117.172 19.4206 117.2 19.4388 117.23 19.4515C117.26 19.4642 117.294 19.4712 117.327 19.472H123.237C123.32 19.4699 123.399 19.4422 123.462 19.3934C123.524 19.3447 123.566 19.2781 123.58 19.2048L124.532 12.346V12.2926H130.294L129.333 19.2316C129.33 19.2616 129.334 19.2918 129.345 19.3205C129.355 19.3491 129.372 19.3755 129.394 19.3981C129.417 19.4206 129.444 19.4388 129.475 19.4515C129.505 19.4642 129.538 19.4712 129.572 19.472H131.06C133.785 19.472 135.787 19.1781 136.211 16.3531L138.266 1.33991C138.273 1.31299 138.273 1.28486 138.265 1.25804C138.257 1.23123 138.242 1.20657 138.221 1.18631C138.2 1.16554 138.173 1.14981 138.143 1.1405C138.113 1.13118 138.081 1.12857 138.05 1.13288Z" fill="white"/>
<path d="M74.4005 5.17384L74.9066 1.494C74.9098 1.46342 74.9057 1.43259 74.8948 1.40349C74.8838 1.3744 74.8662 1.34767 74.8431 1.32504C74.82 1.3024 74.7918 1.28435 74.7605 1.27204C74.7291 1.25974 74.6952 1.25344 74.661 1.25357H52.2635C52.0602 1.26166 51.8607 1.30598 51.6767 1.38395C51.4927 1.46192 51.3278 1.57198 51.1916 1.70771L44.9317 8.58654H44.0384L45.0433 1.34039C45.0484 1.31292 45.0464 1.28475 45.0374 1.2581C45.0283 1.23145 45.0125 1.20704 44.9912 1.18679C44.9678 1.16882 44.9405 1.1554 44.9111 1.14735C44.8816 1.13931 44.8506 1.13682 44.82 1.14004L38.7982 1.80789C38.7106 1.8208 38.6298 1.85803 38.567 1.91434C38.5043 1.97065 38.4628 2.0432 38.4484 2.12177L36.0739 19.2387C36.0669 19.2693 36.068 19.3009 36.077 19.3311C36.0861 19.3612 36.1028 19.389 36.126 19.4123C36.1761 19.4554 36.2428 19.4793 36.3121 19.4791H42.2669C42.3483 19.4756 42.4259 19.4471 42.4869 19.3985C42.5478 19.35 42.5884 19.2841 42.6018 19.212L43.5621 12.3065H44.4851L48.78 19.2187C48.8313 19.2938 48.9021 19.3567 48.9863 19.4021C49.0705 19.4474 49.1657 19.4739 49.2638 19.4791H55.6726C55.7768 19.4791 55.8811 19.4324 55.7917 19.2721L49.9262 10.4966L54.7943 5.44098H61.8284L59.9154 19.2387C59.9084 19.2693 59.9095 19.3009 59.9186 19.3311C59.9276 19.3612 59.9444 19.389 59.9675 19.4123C60.0176 19.4554 60.0843 19.4793 60.1536 19.4791H66.0638C66.1461 19.4782 66.2252 19.4506 66.2867 19.4016C66.3482 19.3525 66.388 19.2852 66.3987 19.212L68.2819 5.44098H74.0581C74.1408 5.43892 74.2202 5.41116 74.2826 5.36243C74.3451 5.31371 74.3867 5.24705 74.4005 5.17384Z" fill="white"/>
<path d="M14.9348 1.25977H9.28516C8.89593 1.27899 8.52911 1.42924 8.25795 1.68051L1.20151 9.35408C1.07289 9.48651 0.993675 9.65174 0.974986 9.8266C0.956298 10.0015 0.99907 10.1772 1.0973 10.3291L6.58317 19.0112C6.67675 19.1478 6.80667 19.2614 6.96127 19.3418C7.11588 19.4222 7.29032 19.467 7.46894 19.472H12.3593C12.7092 19.472 12.8804 19.2716 12.7092 19.0245L7.20842 10.3425L15.173 1.66047C15.3814 1.43341 15.2772 1.25977 14.9348 1.25977Z" fill="white"/>
<path d="M153.451 10.3889L147.965 1.70691C147.869 1.57227 147.738 1.46019 147.584 1.38003C147.43 1.29987 147.257 1.25394 147.079 1.24609H142.181C141.839 1.24609 141.668 1.44645 141.831 1.70023L147.339 10.3822L139.375 19.0977C139.159 19.318 139.263 19.4917 139.613 19.4917H145.263C145.651 19.4762 146.017 19.3252 146.282 19.0709L153.346 11.3573C153.473 11.2254 153.552 11.0615 153.57 10.888C153.589 10.7145 153.547 10.5402 153.451 10.3889Z" fill="white"/>
<path d="M221.417 2.59606H214.39L212.098 19.2922C212.085 19.3943 212.029 19.4882 211.942 19.5551C211.855 19.622 211.743 19.6569 211.629 19.6529H209.626C209.568 19.6581 209.51 19.6516 209.455 19.634C209.4 19.6164 209.35 19.588 209.308 19.551C209.267 19.5139 209.235 19.4691 209.216 19.4197C209.196 19.3703 209.189 19.3177 209.195 19.2655L211.487 2.56934H204.52C204.461 2.56991 204.402 2.55896 204.348 2.53726C204.294 2.51555 204.246 2.48361 204.207 2.44362C204.169 2.40363 204.14 2.35655 204.123 2.30562C204.106 2.25469 204.102 2.20112 204.111 2.1486L204.282 0.772834C204.302 0.66081 204.366 0.559072 204.464 0.486578C204.561 0.414085 204.684 0.375781 204.81 0.378804H221.648C221.705 0.375125 221.762 0.383088 221.815 0.402097C221.869 0.421106 221.916 0.450669 221.955 0.488572C221.994 0.526474 222.022 0.571734 222.039 0.620962C222.055 0.67019 222.059 0.72211 222.05 0.772834L221.849 2.20203C221.851 2.2537 221.841 2.3052 221.82 2.35339C221.799 2.40158 221.768 2.44544 221.727 2.48231C221.687 2.51918 221.638 2.54828 221.585 2.56784C221.532 2.5874 221.475 2.597 221.417 2.59606Z" fill="white"/>
<path d="M221.403 14.9639C221.403 17.3348 222.944 18.1429 225.996 18.1429C227.418 18.1119 228.823 17.8494 230.142 17.3682C230.432 17.268 230.581 17.3682 230.611 17.6019L230.782 18.7773C230.782 18.9844 230.722 19.1179 230.432 19.2181C228.824 19.7418 227.126 20.0063 225.415 19.9995C220.532 19.9995 218.716 18.3299 218.716 14.7903C218.725 14.1383 218.774 13.4872 218.865 12.8402C219.475 8.33221 220.986 5.64746 226.703 5.64746C230.536 5.64746 232.658 6.98316 232.658 9.84154C232.658 13.9021 229.874 14.3228 225.809 14.3228H221.395C221.384 14.5365 221.387 14.7505 221.403 14.9639ZM229.97 10.122C230.03 8.32553 229.01 7.49072 226.487 7.49072C222.825 7.49072 221.931 9.36737 221.641 12.6198H226.048C228.742 12.6198 229.911 12.2859 229.97 10.122Z" fill="white"/>
<path d="M246.51 8.11881C245.286 7.77376 244.018 7.57174 242.736 7.51775C240.235 7.51775 238.932 8.21899 238.173 10.1891C237.68 11.6668 237.429 13.2012 237.429 14.7439C237.322 15.6689 237.624 16.5947 238.27 17.3218C238.88 17.8961 239.87 18.1031 241.292 18.1031C242.586 18.0614 243.871 17.8821 245.118 17.5689C245.187 17.5591 245.257 17.5591 245.326 17.5689C245.367 17.5671 245.408 17.5726 245.446 17.5851C245.484 17.5977 245.519 17.617 245.549 17.6419C245.579 17.6668 245.603 17.6968 245.62 17.7301C245.636 17.7634 245.646 17.7994 245.647 17.836L245.728 18.8511C245.741 18.9025 245.742 18.9558 245.732 19.0076C245.721 19.0594 245.698 19.1087 245.666 19.1525C245.633 19.1963 245.591 19.2336 245.541 19.2621C245.492 19.2907 245.437 19.3099 245.379 19.3186C243.871 19.7283 242.309 19.9529 240.734 19.9865C238.501 19.9865 237.012 19.6258 236.007 18.8177C235.002 18.0096 234.615 16.7073 234.615 14.9375C234.612 13.1244 234.923 11.3218 235.538 9.59475C236.588 6.92336 238.62 5.66113 242.714 5.66113C244.215 5.68045 245.703 5.91725 247.12 6.36237C247.196 6.38318 247.262 6.42459 247.31 6.48086C247.358 6.53712 247.386 6.60543 247.388 6.67626C247.384 6.76532 247.364 6.85319 247.329 6.93672L246.949 7.89842C246.921 7.97873 246.86 8.04642 246.779 8.08745C246.697 8.12848 246.601 8.13971 246.51 8.11881Z" fill="white"/>
<path d="M262.558 10.1227L261.278 19.2655C261.276 19.3182 261.263 19.3699 261.238 19.4179C261.214 19.4658 261.18 19.5091 261.137 19.545C261.094 19.581 261.043 19.609 260.989 19.6275C260.934 19.6461 260.875 19.6547 260.816 19.6529H258.985C258.928 19.6607 258.869 19.6558 258.814 19.6386C258.759 19.6214 258.71 19.5925 258.67 19.5543C258.631 19.5162 258.602 19.4699 258.587 19.4196C258.572 19.3693 258.571 19.3164 258.583 19.2655L259.826 10.3564C259.892 9.93351 259.932 9.50768 259.946 9.08085C259.946 7.83197 259.164 7.49137 257.623 7.49137C255.895 7.53188 254.179 7.75606 252.509 8.15922L251.021 19.2789C251.017 19.3339 251.001 19.3877 250.974 19.4371C250.947 19.4865 250.909 19.5306 250.862 19.5666C250.816 19.6027 250.762 19.6301 250.703 19.6472C250.645 19.6643 250.583 19.6708 250.522 19.6662H248.728C248.46 19.6662 248.289 19.5393 248.319 19.2789L250.842 0.839611C250.842 0.599186 251.021 0.499009 251.281 0.445581L253.165 0.0782647C253.226 0.0671234 253.29 0.0693539 253.35 0.0847705C253.411 0.100187 253.466 0.128343 253.512 0.166894C253.558 0.205445 253.593 0.253273 253.614 0.306396C253.635 0.359519 253.642 0.416398 253.633 0.472295L252.993 4.87341L252.502 6.38275C254.351 5.94736 256.249 5.70312 258.159 5.65479C259.841 5.65479 261.062 5.88854 261.792 6.46289C262.121 6.74114 262.375 7.08302 262.535 7.46257C262.695 7.84213 262.756 8.24938 262.715 8.65343C262.694 9.14545 262.641 9.636 262.558 10.1227Z" fill="white"/>
<path d="M178.081 19.5925H176.079C176.023 19.5948 175.967 19.5861 175.915 19.567C175.863 19.548 175.816 19.519 175.778 19.4822C175.74 19.4454 175.711 19.4015 175.693 19.3537C175.676 19.3058 175.67 19.2551 175.677 19.2051L176.838 10.7635H164.668L163.507 19.2051C163.492 19.3125 163.434 19.4114 163.343 19.4828C163.253 19.5542 163.136 19.5933 163.015 19.5925H161.043C160.985 19.5975 160.926 19.591 160.87 19.5734C160.815 19.5558 160.765 19.5276 160.723 19.4907C160.681 19.4538 160.649 19.4091 160.628 19.3597C160.607 19.3104 160.599 19.2576 160.604 19.2051L163.164 0.672362C163.164 0.438615 163.336 0.358474 163.566 0.33176L165.717 0.00451448C165.769 -0.00373188 165.823 -0.000623427 165.873 0.013576C165.923 0.0277754 165.969 0.0526464 166.006 0.0860777C166.043 0.119509 166.071 0.160513 166.087 0.20561C166.103 0.250706 166.106 0.298563 166.097 0.345117L164.958 8.52625H177.128L178.2 0.672362C178.215 0.57851 178.266 0.492425 178.345 0.429873C178.425 0.367322 178.526 0.332491 178.632 0.33176L180.813 0.00451448C180.864 -0.00384885 180.916 -0.000555137 180.965 0.0140884C181.014 0.0287319 181.058 0.0542481 181.092 0.0882566C181.127 0.122265 181.152 0.163658 181.164 0.208574C181.177 0.253489 181.176 0.300464 181.163 0.345117L178.58 19.2051C178.562 19.3125 178.502 19.4106 178.41 19.4817C178.319 19.5528 178.202 19.5921 178.081 19.5925Z" fill="white"/>
<path d="M201.275 8.01845C200.531 9.32076 199.131 10.1021 196.749 10.3626L196.66 11.0304C198.149 11.164 199.533 11.3443 200.322 12.493C200.76 13.2548 200.961 14.1085 200.903 14.9641C200.903 15.4316 200.903 15.5918 200.843 16.3999L200.613 19.2116C200.615 19.266 200.605 19.3203 200.581 19.3706C200.558 19.421 200.523 19.4662 200.478 19.5031C200.434 19.54 200.381 19.5676 200.323 19.5842C200.265 19.6008 200.204 19.6058 200.144 19.5989H198.03C197.739 19.5989 197.59 19.472 197.62 19.1849L197.851 16.2397C197.851 15.7989 197.911 15.3047 197.911 14.8639C197.938 14.481 197.875 14.0972 197.725 13.738C197.575 13.3787 197.341 13.0522 197.04 12.7802C196.295 12.1791 195.127 11.8653 193.415 11.8385L187.46 11.7116L186.44 19.2116C186.419 19.3212 186.355 19.4205 186.259 19.4915C186.164 19.5625 186.043 19.6006 185.919 19.5989H183.976C183.919 19.6018 183.861 19.5938 183.807 19.5754C183.754 19.5569 183.705 19.5285 183.664 19.4919C183.623 19.4554 183.591 19.4115 183.571 19.3632C183.55 19.3149 183.541 19.2632 183.545 19.2116L186.068 0.772306C186.089 0.654926 186.156 0.548143 186.257 0.471058C186.358 0.393974 186.486 0.351616 186.619 0.351562H195.99C198.454 0.351562 200.285 0.819056 201.268 1.99447C201.861 2.77952 202.149 3.71874 202.086 4.66586C202.118 5.8255 201.84 6.97513 201.275 8.01845ZM198.551 3.40363C198.03 2.78253 197.129 2.46864 195.73 2.46864H188.71L187.691 9.81496L193.526 9.63464C195.558 9.58122 197.3 9.32076 198.26 8.04517C198.836 7.18137 199.118 6.18562 199.072 5.1801C199.127 4.54788 198.944 3.91729 198.551 3.39027V3.40363Z" fill="white"/>
</svg>
