<svg width="51" height="50" viewBox="0 0 51 50" fill="none" xmlns="http://www.w3.org/2000/svg">
<path d="M34.6207 17.1052L16.9046 23.6219C15.6955 24.0851 15.7025 24.7285 16.6828 25.0154L21.2312 26.3689L31.755 20.0352C32.2526 19.7464 32.7072 19.9017 32.3335 20.2182L23.8072 27.5584H23.8052L23.8072 27.5594L23.4934 32.0315C23.9531 32.0315 24.1559 31.8304 24.4137 31.5931L26.623 29.5438L31.2184 32.7817C32.0657 33.2268 32.6743 32.998 32.8851 32.0334L35.9017 18.472C36.2105 17.2911 35.4291 16.7564 34.6207 17.1052Z" fill="white"/>
<path fill-rule="evenodd" clip-rule="evenodd" d="M25.9707 48.04C38.6953 48.04 49.0107 37.7246 49.0107 25C49.0107 12.2754 38.6953 1.96 25.9707 1.96C13.2461 1.96 2.9307 12.2754 2.9307 25C2.9307 37.7246 13.2461 48.04 25.9707 48.04ZM25.9707 49C39.2255 49 49.9707 38.2548 49.9707 25C49.9707 11.7452 39.2255 1 25.9707 1C12.7159 1 1.9707 11.7452 1.9707 25C1.9707 38.2548 12.7159 49 25.9707 49Z" fill="white"/>
</svg>
