<svg width="80" height="80" viewBox="0 0 80 80" fill="none" xmlns="http://www.w3.org/2000/svg">
<rect width="80" height="80" fill="#2C2C2C"/>
<path d="M42.0938 28.006C38.7355 28.0148 35.4047 28.6112 32.252 29.7682C32.1575 29.8115 32.0788 29.8831 32.0267 29.973C31.9746 30.063 31.9517 30.1669 31.9612 30.2704L32.4899 33.7948C32.5032 33.8757 32.5474 33.9484 32.6132 33.9974C32.6494 34.013 32.6884 34.0209 32.7278 34.0209C32.7671 34.0209 32.8061 34.013 32.8423 33.9974C34.2919 33.58 35.7625 33.2389 37.2478 32.9754C40.7722 32.385 42.7282 32.5348 43.715 33.4688C43.9957 33.7684 44.198 34.1326 44.304 34.5292C44.4101 34.9257 44.4166 35.3423 44.323 35.742L44.2349 36.4116C44.2349 36.4116 39.9616 36.9844 37.1861 37.5042C35.1017 37.7754 33.0921 38.4583 31.274 39.5131C28.384 41.3898 27.6703 45.0728 28.2254 47.6985C28.71 49.9981 30.7365 52.7472 37.6531 52.7472H38.1553C48.7285 52.7472 50.1118 50.9409 50.5788 47.117L51.2132 42.0418L52.0326 35.3279C52.2074 34.4859 52.1921 33.6156 51.9878 32.7803C51.7836 31.945 51.3955 31.1658 50.8519 30.4995C49.3541 28.8254 46.4905 28.006 42.0938 28.006ZM43.6534 40.9845C43.6534 40.9845 43.4419 42.9758 43.4419 43.0022L42.8163 48.0333H42.7282C41.744 48.3018 40.726 48.4265 39.7061 48.4034V48.4034C38.5669 48.5077 37.4313 48.1701 36.5341 47.4606C36.2493 47.1543 36.0298 46.7932 35.8889 46.3994C35.7481 46.0056 35.6888 45.5872 35.7147 45.1697C35.7147 43.1608 36.913 41.9009 39.3624 41.4427C41.8119 40.9845 43.7679 40.7731 43.7679 40.7731L43.6534 40.9845Z" fill="white"/>
<path d="M27.3703 28.1735H20.6827C20.222 28.1988 19.7878 28.397 19.4668 28.7286L11.114 38.8524C10.9618 39.0271 10.868 39.2451 10.8459 39.4758C10.8238 39.7064 10.8744 39.9383 10.9907 40.1388L17.4844 51.593C17.5951 51.7732 17.7489 51.9231 17.9319 52.0292C18.1149 52.1353 18.3214 52.1944 18.5329 52.201H24.3217C24.7358 52.201 24.9384 51.9366 24.7358 51.6106L18.2245 40.1564L27.6522 28.7021C27.8989 28.4025 27.7756 28.1735 27.3703 28.1735Z" fill="white"/>
<path d="M69.853 40.2177L63.3593 28.7634C63.2457 28.5858 63.0912 28.4379 62.9088 28.3322C62.7264 28.2264 62.5214 28.1658 62.3108 28.1555H56.5132C56.1079 28.1555 55.9052 28.4198 56.0991 28.7546L62.6192 40.2089L53.1914 51.7072C52.9359 51.9979 53.0593 52.227 53.4734 52.227H60.1609C60.6203 52.2066 61.0535 52.0074 61.368 51.6719L69.7296 41.4953C69.8799 41.3213 69.9725 41.1049 69.9946 40.8761C70.0167 40.6472 69.9672 40.4172 69.853 40.2177V40.2177Z" fill="white"/>
</svg>
