<svg width="163" height="47" viewBox="0 0 163 47" fill="none" xmlns="http://www.w3.org/2000/svg">
<path d="M10.5494 42.647C9.65648 43.5764 8.35325 44.3938 6.63737 45.099C4.92383 45.8043 3.27556 46.1569 1.69723 46.1569C0.874259 46.1569 0.375349 45.795 0.205159 45.0734C0.0676094 44.3844 0 43.6091 0 42.7497C0 41.9231 0.41265 41.4256 1.23562 41.2528C3.08905 40.9422 4.45989 40.4448 5.3528 39.7559C6.34829 38.9643 6.84487 37.4487 6.84487 35.2115V3.45862C6.84487 2.52917 7.27384 2.06445 8.13177 2.06445H11.5799C12.3679 2.06445 12.7642 2.51049 12.7642 3.40724V35.0036C12.7642 38.5836 12.0251 41.1314 10.5494 42.647Z" fill="white"/>
<path d="M38.5514 36.346C36.6979 38.3076 33.6112 39.2884 29.2889 39.2884C25.1041 39.2884 22.1106 38.3333 20.3085 36.4231C18.5063 34.5128 17.6064 30.9258 17.6064 25.6574C17.6064 22.9391 17.8885 20.6576 18.4551 18.8174C19.0216 16.9772 19.8795 15.5807 21.0289 14.6349C22.1782 13.6891 23.4302 13.0259 24.787 12.6476C26.1415 12.2692 27.7642 12.0801 29.6502 12.0801C31.8114 12.0801 33.5529 12.2435 34.8748 12.5705C36.1967 12.8974 37.3787 13.5256 38.4255 14.4551C39.4722 15.3845 40.2183 16.7436 40.6636 18.5348C41.1089 20.3236 41.3327 22.6472 41.3327 25.5056C41.3303 30.7693 40.4048 34.3844 38.5514 36.346ZM34.3572 18.7403C33.5156 17.6054 31.9117 17.0355 29.5453 17.0355C27.3842 17.0355 25.8152 17.6217 24.836 18.7917C23.8591 19.9617 23.3696 22.2152 23.3696 25.5547C23.3696 29.1697 23.8079 31.5517 24.6821 32.7053C25.5564 33.8566 27.1277 34.4334 29.3915 34.4334C31.6902 34.4334 33.3035 33.8753 34.229 32.7567C35.1546 31.6381 35.6185 29.3051 35.6185 25.7602C35.6185 22.2175 35.1989 19.8776 34.3572 18.7403Z" fill="white"/>
<path d="M46.3777 1.44554C46.3777 0.481068 46.7717 0 47.562 0H50.8562C51.6792 0 52.0918 0.481068 52.0918 1.44554V14.1985C54.0129 12.823 56.8105 12.1341 60.4801 12.1341C63.5668 12.1341 65.8329 13.157 67.2736 15.205C68.7144 17.2531 69.4348 20.6182 69.4348 25.2981C69.4348 28.1565 69.1784 30.5058 68.6631 32.346C68.1479 34.1885 67.3343 35.6154 66.2175 36.6312C65.1031 37.6471 63.8069 38.343 62.3312 38.7213C60.8554 39.0996 59.0043 39.2888 56.7732 39.2888C53.4114 39.2888 50.6487 38.9268 48.4876 38.2052C47.5947 37.8946 46.9955 37.4136 46.6854 36.7597C46.4803 36.2786 46.3777 35.5897 46.3777 34.6953V1.44554ZM52.3483 33.5066C52.5535 33.8172 52.9148 34.0227 53.43 34.1255C54.3556 34.366 55.4886 34.4874 56.8268 34.4874C59.6408 34.4874 61.4919 33.8756 62.3848 32.6543C63.2777 31.4329 63.723 29.1163 63.723 25.7091C63.723 22.5075 63.3896 20.2796 62.7205 19.0232C62.0514 17.7668 60.6363 17.1386 58.4751 17.1386C55.8686 17.1386 53.9966 17.5006 52.8659 18.2222C52.5231 18.4627 52.2993 18.6869 52.1968 18.8924C52.1291 19.0979 52.0942 19.4599 52.0942 19.976V32.1615C52.0918 32.8528 52.1758 33.3011 52.3483 33.5066Z" fill="white"/>
<path d="M79.3711 27.57C77.2449 27.0189 75.6666 26.1595 74.6361 24.9895C73.6057 23.8195 73.0928 22.1662 73.0928 20.034C73.0928 14.768 76.4383 12.1338 83.1293 12.1338C86.1834 12.1338 88.601 12.4094 90.3868 12.9605C91.0396 13.1333 91.3636 13.5466 91.3636 14.2005C91.3636 14.6489 91.1585 15.5783 90.7458 16.9888C90.6432 17.5049 90.3332 17.7642 89.8203 17.7642C89.6151 17.7642 89.2025 17.7128 88.5847 17.61C86.8361 17.1617 84.9477 16.9398 82.9241 16.9398C81.2432 16.9398 80.1195 17.1897 79.553 17.6894C78.9865 18.1868 78.7044 18.9038 78.7044 19.8309C78.7044 20.5198 78.9282 21.0709 79.3735 21.4819C79.8187 21.8953 80.7793 22.325 82.255 22.7733L85.7544 23.8055C88.1906 24.5295 89.8879 25.4239 90.8484 26.4911C91.8089 27.5583 92.2892 29.1767 92.2892 31.3438C92.2892 36.6449 88.8761 39.2955 82.0475 39.2955C78.1355 39.2955 75.219 38.8658 73.2979 38.004C72.7501 37.7985 72.475 37.3852 72.475 36.764C72.475 36.3507 72.7151 35.4913 73.1954 34.1812C73.4355 33.5623 73.8132 33.2517 74.3284 33.2517C74.6035 33.2517 75.0488 33.3545 75.6666 33.5623C77.6226 34.1485 79.8188 34.4404 82.255 34.4404C84.0385 34.4404 85.2392 34.1555 85.857 33.588C86.4748 33.0206 86.7825 32.2896 86.7825 31.3952C86.7825 30.7063 86.5587 30.1715 86.1134 29.7932C85.6681 29.4149 84.7053 29.0202 83.2319 28.6045L79.3711 27.57Z" fill="white"/>
<path d="M116.479 36.346C114.626 38.3076 111.539 39.2884 107.215 39.2884C103.03 39.2884 100.036 38.3333 98.2341 36.4231C96.4343 34.5128 95.5321 30.9258 95.5321 25.6574C95.5321 22.9391 95.8142 20.6576 96.3807 18.8174C96.9472 16.9772 97.8052 15.5807 98.9545 14.6349C100.104 13.6891 101.356 13.0259 102.71 12.6476C104.065 12.2692 105.688 12.0801 107.574 12.0801C109.735 12.0801 111.476 12.2435 112.798 12.5705C114.12 12.8974 115.302 13.5256 116.349 14.4551C117.396 15.3845 118.142 16.7436 118.587 18.5348C119.032 20.3236 119.256 22.6472 119.256 25.5056C119.258 30.7693 118.33 34.3844 116.479 36.346ZM112.283 18.7403C111.441 17.6054 109.837 17.0355 107.471 17.0355C105.31 17.0355 103.741 17.6217 102.762 18.7917C101.782 19.9617 101.295 22.2152 101.295 25.5547C101.295 29.1697 101.734 31.5517 102.608 32.7053C103.482 33.8566 105.053 34.4334 107.317 34.4334C109.616 34.4334 111.229 33.8753 112.155 32.7567C113.08 31.6381 113.544 29.3051 113.544 25.7602C113.544 22.2175 113.125 19.8776 112.283 18.7403Z" fill="url(#paint0_linear_10817_1659)"/>
<path d="M128.782 38.7223H125.488C124.7 38.7223 124.303 38.274 124.303 37.3795V17.7608C124.303 16.8991 124.399 16.2546 124.585 15.8249C124.774 15.3952 125.143 14.9725 125.693 14.5592C126.516 13.973 127.905 13.4242 129.861 12.9081C131.817 12.392 133.703 12.1328 135.522 12.1328C136.86 12.1328 137.872 12.2192 138.56 12.392C139.107 12.5648 139.383 12.9432 139.383 13.527C139.383 14.6619 139.296 15.6614 139.126 16.5208C139.024 17.0369 138.646 17.2938 137.993 17.2938C137.821 17.2938 137.385 17.2774 136.681 17.2424C135.976 17.2074 135.506 17.191 135.265 17.191C133.447 17.191 132.041 17.4666 131.046 18.0177C130.6 18.2256 130.325 18.4661 130.223 18.7417C130.085 19.0849 130.018 19.5683 130.018 20.1872V37.3795C130.018 38.2763 129.607 38.7223 128.782 38.7223Z" fill="url(#paint1_linear_10817_1659)"/>
<path d="M162.136 36.6046C161.724 37.1557 161.176 37.5504 160.491 37.7933C159.495 38.2066 158.029 38.5592 156.089 38.8512C154.152 39.1431 152.289 39.2902 150.505 39.2902C146.903 39.2902 144.425 38.5499 143.068 37.0693C141.714 35.5888 141.035 33.5594 141.035 30.9766C141.035 28.0154 141.996 25.916 143.917 24.6783C145.563 23.6461 148.274 23.13 152.049 23.13C154.175 23.13 155.839 23.1978 157.04 23.3355V21.6331C157.04 20.3254 156.938 19.3959 156.73 18.8448C156.285 17.6748 154.69 17.0887 151.944 17.0887C150.228 17.0887 148.428 17.2778 146.54 17.6561C145.201 17.8616 144.516 17.9667 144.481 17.9667C144.001 17.9667 143.674 17.6912 143.504 17.14C143.229 16.1078 143.092 15.2625 143.092 14.6086C143.092 13.9547 143.434 13.5087 144.122 13.2658C146.798 12.4741 149.68 12.0771 152.767 12.0771C156.884 12.0771 159.612 12.7474 160.95 14.0902C162.118 15.2251 162.701 17.4973 162.701 20.9045V34.2763C162.703 35.3833 162.514 36.1562 162.136 36.6046ZM152.718 27.2588C150.214 27.2588 148.514 27.5507 147.624 28.1369C146.868 28.5853 146.491 29.4797 146.491 30.8225C146.491 32.1302 146.824 33.1204 147.493 33.7906C148.162 34.4608 149.405 34.7971 151.226 34.7971C153.249 34.7971 154.828 34.5729 155.961 34.1269C156.441 33.919 156.732 33.6271 156.835 33.2488C156.972 32.8355 157.04 32.2493 157.04 31.4927V27.4667C155.602 27.3289 154.161 27.2588 152.718 27.2588Z" fill="url(#paint2_linear_10817_1659)"/>
<defs>
<linearGradient id="paint0_linear_10817_1659" x1="107.395" y1="39.2897" x2="107.395" y2="12.0804" gradientUnits="userSpaceOnUse">
<stop stop-color="#553981"/>
<stop offset="1" stop-color="#824AAC"/>
</linearGradient>
<linearGradient id="paint1_linear_10817_1659" x1="131.845" y1="38.7232" x2="131.845" y2="12.1337" gradientUnits="userSpaceOnUse">
<stop stop-color="#553981"/>
<stop offset="1" stop-color="#824AAC"/>
</linearGradient>
<linearGradient id="paint2_linear_10817_1659" x1="151.87" y1="39.2891" x2="151.87" y2="12.0798" gradientUnits="userSpaceOnUse">
<stop stop-color="#553981"/>
<stop offset="1" stop-color="#824AAC"/>
</linearGradient>
</defs>
</svg>
